# xmcd
#
# Track frame offsets: 
#        150
#        16783
#        33820
#        55836
#        77681
#        93191
#        110865
#        133222
#        152292
#        177106
#
# Disc length: 2626 seconds
#
# Revision: 2
# Processed by: cddbd v1.5.1PL0 Copyright (c) Steve Scherf et al.
# Submitted via: ExactAudioCopy v0.95b2
#
DISCID=6d0a400a
DTITLE=Агутин Леонид and Варум Анжелика - Служебный Роман
DYEAR=2000
DGENRE=Pop
TTITLE0=Привокзальное Кафе
TTITLE1=Дождь
TTITLE2=Всё В Твоих Руках
TTITLE3=Не Жди Меня
TTITLE4=Почему
TTITLE5=В Городе Снов
TTITLE6=Просто Танец
TTITLE7=Маэстро
TTITLE8=Февраль (remix)
TTITLE9=Прощай
EXTD=Year: 2000Disc Number: 348Russian
EXTT0=
EXTT1=
EXTT2=
EXTT3=
EXTT4=
EXTT5=
EXTT6=
EXTT7=
EXTT8=
EXTT9=
PLAYORDER=
